<svg id="Layer_1" data-name="Layer 1" xmlns="http://www.w3.org/2000/svg" width="240" height="240" viewBox="0 0 240 240">
  <title>ICONS Sets_v3</title>
  <g id="Snake_cup" data-name="Snake cup">
    <g>
      <g>
        <path d="M93.75,154.22v2.15c3.66-.37,7.7-.89,12.11-1.5V123.92c14.86-1.18,28.09-6.73,37.6-15.8s15.31-21.66,15.31-36.92H40.84c0,15.26,5.8,27.85,15.31,36.92s22.74,14.62,37.6,15.8Z" style="fill: none;stroke: #005EB8;stroke-miterlimit: 10;stroke-width: 4px"/>
        <path d="M121.3,199.56a30.36,30.36,0,0,0-15.44-7v-9.2c-3.93.86-8,1.61-12.11,2.11v7.09a30.28,30.28,0,0,0-15.43,7c-3.86,3.49-6.17,7.94-6.17,12.79h55.31C127.46,207.5,125.15,203.05,121.3,199.56Z" style="fill: none;stroke: #005EB8;stroke-miterlimit: 10;stroke-width: 4px"/>
      </g>
      <g>
        <path d="M126,159.86c-35.46,5.46-56.21,8.61-56.21-.82,0-5.32,5.79-7.5,16.14-7.9V137.07c-19.52,2.35-29.31,7-29.31,22.08,0,36.2,64.48,12,75.41,10.51,17.09-2.42,22.52,9.61,23.82,5.42S154.82,155.42,126,159.86Z" style="fill: none;stroke: #005EB8;stroke-miterlimit: 10;stroke-width: 4px"/>
        <path d="M120.58,33.58c-3.41-3.6-8.93-5.93-15.92-5.93-12,0-30.51,6.83-30.51,15.26s18.52,15.26,30.51,15.26c8.38,0,14.66-3.34,17.7-8.23C158.05,52.56,182,64,184,86.58c3.76,43-33.38,45.89-69.33,48.82v14.74C154,148,207.75,141.22,203.16,85,201.87,69.25,189.7,34.58,120.58,33.58Z" style="fill: none;stroke: #005EB8;stroke-miterlimit: 10;stroke-width: 4px"/>
      </g>
      <path d="M107.81,37.63c0,1.68-1.44,3-4.37,3s-6.63-1.37-6.63-3,3.7-3.05,6.63-3.05S107.81,36,107.81,37.63Z" style="fill: #005EB8"/>
    </g>
  </g>
</svg>
